:SAMPLES-PER-SECOND 30
:FULLY-SPECIFIED
:DEGREES
136
root  1.62713997 37.22755552 0.2975599972 -19.49597168 -76.97799683 11.4119873
lowerback  11.50749969 1.108250022 -0.854008019
upperback  5.228990078 1.19235003 -0.4472950101
thorax  -1.004199982 0.5119410157 -0.125752002
lowerneck  -2.959929943 5.297530174 -0.413695991
upperneck  17.82699966 6.74420023 1.39507997
head  5.805940151 3.230920076 0.8849250078
lclavicle  0 -9.442270133e-015 7.951389973e-016
lhumerus  2.022480011 -12.71459961 82.18289948
lradius  2.369828788e-031 -2.617776834e-031 132.154007
lwrist  -1.059337512e-030 -1.765562519e-031 3.469949961
lhand  -1.496451383e-031 -27.76390076 20.11240005
lfingers  90 7.125020027 -90
lthumb  89.89689403 5.08795885 91.16245106
rclavicle  0 -9.442270133e-015 7.951389973e-016
rhumerus  28.03079987 28.27930069 -73.51300049
rradius  -2.067058071e-031 2.862885776e-031 125.8300018
rwrist  7.062250077e-031 1.765562519e-031 -10.92920017
rhand  -7.920061211e-032 -33.2840004 9.303460121
rfingers  -90 -7.125020027 -90
rthumb  -92.93752616 -24.25625642 -97.11982154
rfemur  -24.58670044 14.55150032 1.34837997
rtibia  -0 0 82.22250366
rfoot  -6.632772955e-032 -3.434590101 -2.080080032
rtoes  5.373923086 19.29304026 -105.8922705
lfemur  -17.31870079 -10.37959957 -5.303410053
ltibia  -0 0 57.80889893
lfoot  6.944326447e-032 -17.55649948 -1.980530024
ltoes  -4.250644065 -19.5611806 -102.515957
137
root  1.713673336 36.96977811 0.3193200104 -20.05499268 -77.64499664 11.78497314
lowerback  11.53789997 1.140319943 -0.3041619956
upperback  5.226739883 1.292279959 -0.3679229915
thorax  -1.012859941 0.56873101 -0.3653300107
lowerneck  -3.052489996 5.298510075 -0.421698004
upperneck  17.38139915 6.789199829 1.226789951
head  5.687650204 3.250570059 0.8312860131
lclavicle  0 -9.442270133e-015 7.951389973e-016
lhumerus  2.256750107 -13.11699963 82.18409729
lradius  2.382228847e-031 -2.606497603e-031 132.4259949
lwrist  -1.059337512e-030 -0 2.900890112
lhand  -1.496451383e-031 -27.76390076 20.11240005
lfingers  90 7.125020027 -90
lthumb  89.89689403 5.08795885 91.16245106
rclavicle  0 -9.442270133e-015 7.951389973e-016
rhumerus  28.55610085 27.85779953 -73.43000031
rradius  -2.073947509e-031 2.857898838e-031 125.9680023
rwrist  7.062250077e-031 -1.765562519e-031 -10.89420033
rhand  -7.920061211e-032 -33.2840004 9.303460121
rfingers  -90 -7.125020027 -90
rthumb  -92.93752616 -24.25625642 -97.11982154
rfemur  -22.45089912 15.21650028 1.621219993
rtibia  -0 0 81.38330078
rfoot  -5.521541306e-032 -2.223819971 -1.268149972
rtoes  5.373923086 19.29304026 -105.8922705
lfemur  -17.63680077 -10.54950047 -4.780330181
ltibia  -0 0 59.04380035
lfoot  4.645844926e-032 -18.18090057 -3.139499903
ltoes  -4.250644065 -19.5611806 -102.515957
138
root  1.795448844 36.67933246 0.3302933428 -20.61700439 -78.51699829 12.19500732
lowerback  11.42850018 1.252719998 0.2733489871
upperback  5.314849854 1.50019002 -0.2173939943
thorax  -0.8495699763 0.678475976 -0.5557579994
lowerneck  -3.189929962 5.328999996 -0.7240909934
upperneck  16.86599922 6.878680229 1.208729982
head  5.538849831 3.286159992 0.8739619851
lclavicle  0 -9.442270133e-015 7.951389973e-016
lhumerus  2.577990055 -13.5326004 82.33249664
lradius  2.388908462e-031 -2.600376972e-031 132.572998
lwrist  -1.059337512e-030 -3.531125038e-031 2.036149979
lhand  -1.496451383e-031 -27.76390076 20.11240005
lfingers  90 7.125020027 -90
lthumb  89.89689403 5.08795885 91.16245106
rclavicle  0 -9.442270133e-015 7.951389973e-016
rhumerus  29.21489906 27.50779915 -73.25559998
rradius  -2.07768656e-031 2.85518171e-031 126.0429993
rwrist  1.412450015e-030 1.765562519e-031 -10.67920017
rhand  -7.920061211e-032 -33.2840004 9.303460121
rfingers  -90 -7.125020027 -90
rthumb  -92.93752616 -24.25625642 -97.11982154
rfemur  -20.19479942 16.18400002 2.046269894
rtibia  -0 0 79.87879944
rfoot  -4.693861289e-032 -2.390810013 0.08311469853
rtoes  5.373923086 19.29304026 -105.8922705
lfemur  -17.91539955 -10.34659958 -4.183750153
ltibia  -0 0 60.34049988
lfoot  4.671428471e-032 -19.11330032 -4.076509953
ltoes  -4.250644065 -19.5611806 -102.515957
139
root  1.867720086 36.3562216 0.3255266608 -23.01300049 -79.42500305 14.52600098
lowerback  11.33399963 1.388120055 0.09839539975
upperback  5.332149982 1.665420055 0.06316050142
thorax  -0.7923160195 0.7545030117 -0.1844210029
lowerneck  -3.225869894 5.44547987 -1.058130026
upperneck  16.35090065 7.121310234 0.9369350076
head  5.380620003 3.377739906 0.848221004
lclavicle  0 -9.442270133e-015 7.951389973e-016
lhumerus  2.429260015 -13.31529999 83.01460266
lradius  2.392899419e-031 -2.596704913e-031 132.6609955
lwrist  -7.062250077e-031 -3.531125038e-031 0.849018991
lhand  -1.496451383e-031 -27.76390076 20.11240005
lfingers  90 7.125020027 -90
lthumb  89.89689403 5.08795885 91.16245106
rclavicle  0 -9.442270133e-015 7.951389973e-016
rhumerus  29.84119987 27.60519981 -72.94210052
rradius  -2.081870222e-031 2.852132608e-031 126.1269989
rwrist  0 -0 -10.33780003
rhand  -7.920061211e-032 -33.2840004 9.303460121
rfingers  -90 -7.125020027 -90
rthumb  -92.93752616 -24.25625642 -97.11982154
rfemur  -17.77050018 17.38669968 2.211600065
rtibia  -0 0 77.79219818
rfoot  -4.71459132e-032 -5.881269932 0.1233770028
rtoes  5.373923086 19.29304026 -105.8922705
lfemur  -18.14509964 -9.844449997 -3.968509912
ltibia  -0 0 61.54809952
lfoot  4.703169863e-032 -20.19949913 -4.769309998
ltoes  -4.250644065 -19.5611806 -102.515957
